<svg width="25" height="25" viewBox="0 0 25 25" fill="none" xmlns="http://www.w3.org/2000/svg">
<path fill-rule="evenodd" clip-rule="evenodd" d="M7.5 0C9.42088 0 11.1731 0.722129 12.5 1.90972C13.8269 0.722129 15.5791 0 17.5 0C21.6421 0 25 3.35786 25 7.5C25 9.42089 24.2778 11.1731 23.0902 12.5C24.2778 13.8269 25 15.5791 25 17.5C25 21.6421 21.6421 25 17.5 25C15.5791 25 13.8269 24.2779 12.5 23.0903C11.1731 24.2779 9.42088 25 7.5 25C3.35786 25 0 21.6421 0 17.5C0 15.5791 0.722135 13.8269 1.90974 12.5C0.722135 11.1731 0 9.42089 0 7.5C0 3.35786 3.35786 0 7.5 0Z" fill="#00FF00"/>
</svg>
