<svg width="440" height="293" viewBox="0 0 440 293" fill="none" xmlns="http://www.w3.org/2000/svg">
<g clip-path="url(#clip0_608_226)">
<path d="M-25 292.256C-30.0011 292.256 -35.0021 290.681 -39.2144 287.528C-42.4711 285.093 -119.386 227.275 -153.45 178.022C-162.029 165.619 -168.664 152.421 -173.177 138.788C-177.707 125.115 -180 111.316 -180 97.769C-180 70.9383 -170.685 46.2952 -153.771 28.381C-136.495 10.0772 -112.543 0 -86.334 0C-64.9068 0 -45.6059 6.94813 -30.5215 20.0895C-28.5983 21.7616 -26.7605 23.5271 -25.0041 25.3818C-23.2476 23.5311 -21.4098 21.7657 -19.4866 20.0895C-4.39812 6.94813 14.9027 0 36.3299 0C62.5428 0 86.4909 10.0772 103.771 28.381C120.685 46.2952 130 70.9383 130 97.769C130 111.316 127.707 125.119 123.181 138.788C118.668 152.421 112.029 165.623 103.454 178.022C69.3897 227.275 -7.5248 285.093 -10.7816 287.528C-14.9938 290.677 -19.9949 292.256 -24.9959 292.256H-25ZM-86.334 47.3098C-99.54 47.3098 -110.933 51.9852 -119.28 60.8246C-127.871 69.9278 -132.604 83.0448 -132.604 97.765C-132.604 115.253 -126.155 134.21 -114.446 151.142C-92.8069 182.429 -47.9601 220.214 -25 238.578C-2.0399 220.218 42.8069 182.429 64.4456 151.142C76.1554 134.214 82.6039 115.257 82.6039 97.765C82.6039 83.0448 77.8712 69.9237 69.2799 60.8246C60.9326 51.9811 49.54 47.3098 36.334 47.3098C15.9029 47.3098 2.39598 59.5137 -1.69025 81.673C-3.75978 92.8948 -13.5626 101.044 -24.9959 101.044C-36.4292 101.044 -46.2321 92.8988 -48.3016 81.673C-52.3919 59.5137 -65.8948 47.3098 -86.3259 47.3098H-86.334Z" fill="black" fill-opacity="0.2"/>
</g>
<g clip-path="url(#clip1_608_226)">
<path d="M285 292.256C279.999 292.256 274.998 290.681 270.786 287.528C267.529 285.093 190.614 227.275 156.55 178.022C147.971 165.619 141.336 152.421 136.823 138.788C132.293 125.115 130 111.316 130 97.769C130 70.9383 139.315 46.2952 156.229 28.381C173.505 10.0772 197.457 0 223.666 0C245.093 0 264.394 6.94813 279.479 20.0895C281.402 21.7616 283.239 23.5271 284.996 25.3818C286.752 23.5311 288.59 21.7657 290.513 20.0895C305.602 6.94813 324.903 0 346.33 0C372.543 0 396.491 10.0772 413.771 28.381C430.685 46.2952 440 70.9383 440 97.769C440 111.316 437.707 125.119 433.181 138.788C428.668 152.421 422.029 165.623 413.454 178.022C379.39 227.275 302.475 285.093 299.218 287.528C295.006 290.677 290.005 292.256 285.004 292.256H285ZM223.666 47.3098C210.46 47.3098 199.067 51.9852 190.72 60.8246C182.129 69.9278 177.396 83.0448 177.396 97.765C177.396 115.253 183.845 134.21 195.554 151.142C217.193 182.429 262.04 220.214 285 238.578C307.96 220.218 352.807 182.429 374.446 151.142C386.155 134.214 392.604 115.257 392.604 97.765C392.604 83.0448 387.871 69.9237 379.28 60.8246C370.933 51.9811 359.54 47.3098 346.334 47.3098C325.903 47.3098 312.396 59.5137 308.31 81.673C306.24 92.8948 296.437 101.044 285.004 101.044C273.571 101.044 263.768 92.8988 261.698 81.673C257.608 59.5137 244.105 47.3098 223.674 47.3098H223.666Z" fill="black" fill-opacity="0.2"/>
</g>
<defs>
<clipPath id="clip0_608_226">
<rect width="310" height="292.256" fill="white" transform="translate(-180)"/>
</clipPath>
<clipPath id="clip1_608_226">
<rect width="310" height="292.256" fill="white" transform="translate(130)"/>
</clipPath>
</defs>
</svg>
