<svg width="8" height="8" viewBox="0 0 8 8" fill="none" xmlns="http://www.w3.org/2000/svg">
<path fill-rule="evenodd" clip-rule="evenodd" d="M2.39994 0C3.01461 0 3.57531 0.231083 3.9999 0.611115C4.4245 0.231083 4.98519 0 5.59986 0C6.92531 0 7.9998 1.07452 7.9998 2.4C7.9998 3.01474 7.76868 3.57551 7.38859 4.00013C7.76855 4.42472 7.99959 4.98538 7.99959 5.60001C7.99959 6.9255 6.9251 8.00001 5.59965 8.00001C4.98503 8.00001 4.42438 7.76897 3.99979 7.38899C3.57521 7.76897 3.01456 8.00001 2.39994 8.00001C1.07449 8.00001 0 6.9255 0 5.60001C0 4.98533 0.231079 4.42461 0.611105 4.00001C0.231079 3.5754 0 3.01469 0 2.4C0 1.07452 1.07449 0 2.39994 0Z" fill="black" fill-opacity="0.3"/>
</svg>
