<svg width="250" height="250" viewBox="0 0 250 250" fill="none" xmlns="http://www.w3.org/2000/svg">
<g clip-path="url(#clip0_135_137)">
<path d="M118.944 166.356C118.944 146.852 103.135 131.056 83.6436 131.056C74.2959 131.056 65.798 134.698 59.4718 140.633C53.1591 134.698 44.6612 131.056 35.3 131.056C15.7953 131.056 0 146.865 0 166.356C0 175.704 3.64195 184.202 9.57699 190.528C3.64195 196.841 0 205.339 0 214.7C0 234.205 15.8088 250 35.3 250C44.6477 250 53.1456 246.358 59.4718 240.423C65.7845 246.358 74.2824 250 83.6436 250C103.148 250 118.944 234.191 118.944 214.7C118.944 205.352 115.302 196.854 109.367 190.528C115.302 184.215 118.944 175.718 118.944 166.356Z" fill="black"/>
<path d="M42.9971 168.976L37.9229 174.05L75.9507 212.078L81.0249 207.004L42.9971 168.976Z" fill="white"/>
<path d="M81.0242 174.04L75.95 168.966L37.9221 206.994L42.9963 212.068L81.0242 174.04Z" fill="white"/>
<path d="M250 166.356C250 146.852 234.191 131.056 214.7 131.056C205.352 131.056 196.854 134.698 190.528 140.633C184.215 134.698 175.718 131.056 166.356 131.056C146.852 131.056 131.056 146.865 131.056 166.356C131.056 175.704 134.698 184.202 140.633 190.528C134.698 196.841 131.056 205.339 131.056 214.7C131.056 234.205 146.865 250 166.356 250C175.704 250 184.202 246.358 190.528 240.423C196.841 246.358 205.339 250 214.7 250C234.205 250 250 234.191 250 214.7C250 205.352 246.358 196.854 240.423 190.528C246.358 184.215 250 175.718 250 166.356Z" fill="black"/>
<path d="M174.043 168.972L168.969 174.047L206.997 212.074L212.071 207L174.043 168.972Z" fill="white"/>
<path d="M212.084 174.043L207.01 168.969L168.982 206.997L174.056 212.071L212.084 174.043Z" fill="white"/>
<path d="M118.944 35.3C118.944 15.7953 103.135 0 83.6436 0C74.2959 0 65.798 3.64195 59.4718 9.57699C53.1591 3.64195 44.6612 0 35.3 0C15.8088 0 0 15.8088 0 35.3C0 44.6477 3.64195 53.1456 9.57699 59.4718C3.64195 65.7845 0 74.2824 0 83.6436C0 103.148 15.8088 118.944 35.3 118.944C44.6477 118.944 53.1456 115.302 59.4718 109.367C65.7845 115.302 74.2824 118.944 83.6436 118.944C103.148 118.944 118.944 103.135 118.944 83.6436C118.944 74.2959 115.302 65.798 109.367 59.4718C115.302 53.1591 118.944 44.6612 118.944 35.3Z" fill="black"/>
<path d="M42.9939 37.916L37.9197 42.9902L75.9475 81.018L81.0217 75.9438L42.9939 37.916Z" fill="white"/>
<path d="M81.0276 42.9938L75.9534 37.9196L37.9255 75.9475L42.9997 81.0217L81.0276 42.9938Z" fill="white"/>
<path d="M250 35.3C250 15.7953 234.191 0 214.7 0C205.352 0 196.854 3.64195 190.528 9.57699C184.215 3.64195 175.718 0 166.356 0C146.852 0 131.056 15.8088 131.056 35.3C131.056 44.6477 134.698 53.1456 140.633 59.4718C134.698 65.7845 131.056 74.2824 131.056 83.6436C131.056 103.148 146.865 118.944 166.356 118.944C175.704 118.944 184.202 115.302 190.528 109.367C196.841 115.302 205.339 118.944 214.7 118.944C234.205 118.944 250 103.135 250 83.6436C250 74.2959 246.358 65.798 240.423 59.4718C246.358 53.1591 250 44.6612 250 35.3Z" fill="black"/>
<path d="M174.04 37.9126L168.966 42.9868L206.994 81.0147L212.068 75.9405L174.04 37.9126Z" fill="white"/>
<path d="M212.087 42.9971L207.013 37.9229L168.985 75.9508L174.06 81.025L212.087 42.9971Z" fill="white"/>
</g>
<defs>
<clipPath id="clip0_135_137">
<rect width="250" height="250" fill="white"/>
</clipPath>
</defs>
</svg>
