<svg width="488" height="119" viewBox="0 0 488 119" fill="none" xmlns="http://www.w3.org/2000/svg">
<g clip-path="url(#clip0_610_401)">
<path d="M305.331 54.1974C304.946 47.6009 303.602 41.0565 301.294 34.5545C298.026 25.1863 296.392 18.7363 296.392 15.1996C296.392 10.2322 297.57 6.45477 299.926 3.87191C302.282 1.28906 305.188 0 308.651 0C311.629 0 314.227 1.28906 316.44 3.87191C318.648 6.45477 319.755 10.1331 319.755 14.9116C319.755 19.2132 318.477 25.2099 315.932 32.9066C313.381 40.6032 311.823 47.7001 311.244 54.1974C316.53 50.8543 321.289 46.7935 325.521 42.0103C332.056 34.46 336.915 29.776 340.088 27.9581C343.26 26.1449 346.481 25.2336 349.748 25.2336C353.016 25.2336 355.59 26.3101 357.751 28.4586C359.912 30.607 360.995 33.1663 360.995 36.1269C360.995 39.6635 359.409 42.8177 356.236 45.5894C353.064 48.3612 345.132 51.1329 332.441 53.9046C325.037 55.5289 318.886 57.3941 313.98 59.4953C318.976 62.0781 325.084 64.0377 332.294 65.374C343.925 67.4799 351.548 70.1053 355.153 73.2595C358.758 76.4137 360.563 79.8559 360.563 83.5814C360.563 86.4476 359.48 88.936 357.319 91.0372C355.158 93.1384 352.631 94.1914 349.748 94.1914C346.865 94.1914 343.664 93.1857 340.159 91.1789C336.649 89.1721 331.914 84.6816 325.953 77.7027C322.011 73.0186 317.105 68.6226 311.244 64.5146C311.434 69.9636 312.541 75.8895 314.559 82.2924C318.021 93.5729 319.75 101.265 319.75 105.377C319.75 109.202 318.596 112.427 316.288 115.057C313.98 117.687 311.529 119 308.931 119C305.373 119 302.153 117.617 299.27 114.84C297.252 112.833 296.24 109.632 296.24 105.236C296.24 100.84 297.342 95.1263 299.555 88.6763C301.764 82.2263 303.16 77.7783 303.74 75.3418C304.314 72.9053 304.842 69.2978 305.326 64.5146C299.65 68.2401 294.701 72.4001 290.469 76.9897C283.45 84.828 278.163 89.8001 274.606 91.9013C272.103 93.4312 269.51 94.1961 266.817 94.1961C263.549 94.1961 260.761 93.0959 258.453 90.9003C256.145 88.7046 254.99 86.2634 254.99 83.5861C254.99 81.1969 255.974 78.6896 257.945 76.0595C259.916 73.4342 262.87 71.2574 266.812 69.5339C269.41 68.3865 275.323 66.8614 284.552 64.9443C290.512 63.7024 296.326 61.8845 302.001 59.4953C296.81 56.9124 290.607 54.9056 283.397 53.4749C271.571 50.9912 264.266 48.7436 261.478 46.7368C257.152 43.5827 254.99 39.7627 254.99 35.2675C254.99 32.6846 256.073 30.319 258.234 28.1705C260.395 26.0221 262.922 24.9455 265.805 24.9455C268.978 24.9455 272.341 25.9513 275.898 27.9581C279.455 29.9648 283.877 34.0067 289.163 40.0743C294.45 46.1466 299.836 50.8543 305.316 54.1974H305.331Z" fill="black"/>
</g>
<path d="M188.729 38.4C197.129 38.4 203.429 40.8267 207.629 45.68C211.829 50.44 213.929 57.2534 213.929 66.12V114H186.069V69.48C186.069 66.3067 185.276 63.7867 183.689 61.92C182.196 59.96 180.049 58.98 177.249 58.98C173.983 58.98 171.323 60.1 169.269 62.34C167.216 64.58 166.189 67.3334 166.189 70.6V114H138.329V69.48C138.329 66.3067 137.536 63.7867 135.949 61.92C134.456 59.96 132.309 58.98 129.509 58.98C126.243 58.98 123.583 60.1 121.529 62.34C119.476 64.58 118.449 67.3334 118.449 70.6V114H90.5894V40.08H113.409L115.229 51.14C118.029 47.22 121.716 44.14 126.289 41.9C130.956 39.5667 135.856 38.4 140.989 38.4C152.096 38.4 159.563 42.6467 163.389 51.14C166.283 47.22 169.969 44.14 174.449 41.9C179.023 39.5667 183.783 38.4 188.729 38.4Z" fill="black"/>
<path d="M63.2446 67.66H49.9446L59.8846 42.18H49.9446V17.68H75.9846V40.78L63.2446 67.66Z" fill="black"/>
<path d="M0.570557 114V17.68H31.5106V114H0.570557Z" fill="black"/>
<path d="M439.751 38.4C451.044 38.4 460.237 40.3134 467.331 44.14C474.424 47.8734 477.971 53.9867 477.971 62.48V91.32C477.971 92.9067 478.344 94.2134 479.091 95.24C479.837 96.2667 480.957 96.78 482.451 96.78H487.491V112.88C487.211 113.067 486.464 113.393 485.251 113.86C484.131 114.233 482.497 114.607 480.35 114.98C478.204 115.447 475.731 115.68 472.931 115.68C467.517 115.68 463.037 114.887 459.491 113.3C456.037 111.62 453.657 109.333 452.351 106.44C448.804 109.24 444.837 111.48 440.451 113.16C436.064 114.84 430.931 115.68 425.051 115.68C407.691 115.68 399.01 108.773 399.01 94.96C399.01 87.7734 400.924 82.3134 404.751 78.58C408.671 74.7534 414.271 72.14 421.551 70.74C428.831 69.34 438.351 68.64 450.111 68.64V65C450.111 62.1067 449.084 59.9134 447.031 58.42C445.071 56.9267 442.504 56.18 439.331 56.18C436.437 56.18 433.917 56.6934 431.771 57.72C429.717 58.7467 428.691 60.38 428.691 62.62V63.18H401.251C401.157 62.7134 401.111 62.06 401.111 61.22C401.111 54.22 404.424 48.6667 411.051 44.56C417.771 40.4534 427.337 38.4 439.751 38.4ZM450.111 81.8C442.177 81.8 436.297 82.6867 432.471 84.46C428.737 86.14 426.87 88.4267 426.87 91.32C426.87 95.9867 430.044 98.32 436.391 98.32C440.031 98.32 443.204 97.34 445.911 95.38C448.711 93.42 450.111 90.9934 450.111 88.1V81.8Z" fill="black"/>
<defs>
<clipPath id="clip0_610_401">
<rect width="106" height="119" fill="white" transform="translate(255)"/>
</clipPath>
</defs>
</svg>
