<svg width="731" height="133" viewBox="0 0 731 133" fill="none" xmlns="http://www.w3.org/2000/svg">
<path d="M648.287 27.26C650.434 27.26 652.347 27.54 654.027 28.1C655.707 28.5667 656.547 28.8467 656.547 28.94V52.32H647.587C641.8 52.32 637.6 53.8133 634.987 56.8C632.467 59.7867 631.207 64.22 631.207 70.1V103H603.347V29.08H626.167L627.987 40.28C629.667 35.9867 632.327 32.7667 635.967 30.62C639.607 28.38 643.714 27.26 648.287 27.26Z" fill="black"/>
<path d="M548.188 27.4C561.722 27.4 572.035 30.5734 579.128 36.92C586.315 43.2667 589.908 52.9734 589.908 66.04V70.8H534.468C534.468 76.12 535.635 80.1334 537.968 82.84C540.395 85.5467 544.175 86.9 549.308 86.9C553.975 86.9 557.382 85.92 559.528 83.96C561.768 82 562.888 79.3867 562.888 76.12H589.908C589.908 85.08 586.502 92.08 579.688 97.12C572.875 102.16 562.935 104.68 549.868 104.68C536.148 104.68 525.508 101.507 517.948 95.16C510.388 88.72 506.608 79.0134 506.608 66.04C506.608 53.3467 510.295 43.7334 517.668 37.2C525.042 30.6667 535.215 27.4 548.188 27.4ZM549.308 45.18C540.535 45.18 535.635 49.3334 534.608 57.64H561.768C561.768 53.8134 560.648 50.78 558.408 48.54C556.262 46.3 553.228 45.18 549.308 45.18Z" fill="black"/>
<path d="M467.549 27.4C476.136 27.4 482.576 29.78 486.869 34.54C491.163 39.3 493.309 46.16 493.309 55.12V103H465.449V58.48C465.449 55.3067 464.609 52.7867 462.929 50.92C461.343 48.96 459.056 47.98 456.069 47.98C452.616 47.98 449.816 49.1 447.669 51.34C445.523 53.58 444.449 56.3334 444.449 59.6V103H416.589V29.08H439.409L441.229 40.28C444.123 36.36 447.903 33.2334 452.569 30.9C457.329 28.5667 462.323 27.4 467.549 27.4Z" fill="black"/>
<path d="M406.37 15.22C406.37 20.9133 404.924 25.3 402.03 28.38C399.23 31.46 394.984 33.7466 389.29 35.24C391.997 37.2933 394.097 39.72 395.59 42.52C397.177 45.2266 397.97 48.12 397.97 51.2C397.97 59.04 394.984 64.9666 389.01 68.98C383.13 72.9933 375.757 75 366.89 75H356.25C350.37 75 347.43 76.3533 347.43 79.06C347.43 80.3666 348.084 81.44 349.39 82.28C350.697 83.0266 352.984 83.4 356.25 83.4H381.451C389.664 83.4 395.87 85.5466 400.07 89.84C404.27 94.1333 406.37 99.8733 406.37 107.06C406.37 112.38 404.971 116.953 402.171 120.78C399.371 124.607 395.591 127.5 390.831 129.46C386.071 131.42 380.89 132.4 375.29 132.4H334.13C330.77 132.4 327.644 131.607 324.75 130.02C321.95 128.433 319.71 126.24 318.03 123.44C316.35 120.733 315.51 117.7 315.51 114.34C315.51 110.7 316.63 107.387 318.87 104.4C321.11 101.507 323.91 99.3133 327.27 97.82C325.03 96.2333 323.257 94.32 321.951 92.08C320.644 89.84 319.99 87.4133 319.99 84.8C319.99 81.16 321.344 77.8933 324.05 75C326.757 72.0133 330.117 70.0066 334.13 68.98C330.49 66.6466 327.597 63.9866 325.451 61C323.304 57.92 322.23 54.7 322.23 51.34C322.23 42.7533 325.684 36.64 332.59 33C339.59 29.2666 348.83 27.4 360.31 27.4C365.35 27.4 369.41 27.68 372.49 28.24C377.064 25.3466 380.004 22.7333 381.31 20.4C382.71 17.9733 383.41 16.2466 383.41 15.22H406.37ZM360.03 41.96C356.95 41.96 354.43 42.7533 352.47 44.34C350.51 45.9266 349.53 48.2133 349.53 51.2C349.53 54.28 350.417 56.6133 352.19 58.2C354.057 59.6933 356.67 60.44 360.03 60.44C363.39 60.44 366.004 59.6933 367.87 58.2C369.83 56.6133 370.81 54.28 370.81 51.2C370.81 48.12 369.83 45.8333 367.87 44.34C366.004 42.7533 363.39 41.96 360.03 41.96ZM349.25 103C347.104 103 345.33 103.56 343.93 104.68C342.624 105.893 341.97 107.573 341.97 109.72C341.97 111.867 342.67 113.593 344.07 114.9C345.47 116.207 347.197 116.86 349.25 116.86H371.09C373.144 116.86 374.87 116.207 376.27 114.9C377.764 113.687 378.51 112.007 378.51 109.86C378.51 107.713 377.81 106.033 376.41 104.82C375.01 103.607 373.237 103 371.09 103H349.25Z" fill="black"/>
<path d="M277.569 20.4V1.5H305.429V20.4H277.569ZM277.569 103V29.08H305.429V103H277.569Z" fill="black"/>
<path d="M226.144 27.4C236.037 27.4 244.39 29.36 251.204 33.28C258.11 37.1067 261.563 43.08 261.563 51.2H235.663C235.663 48.4934 234.45 46.58 232.024 45.46C230.344 44.5267 228.243 44.06 225.723 44.06C219.003 44.06 215.644 45.6467 215.644 48.82C215.644 50.5934 216.81 51.8534 219.144 52.6C221.477 53.3467 225.303 54.14 230.623 54.98C237.157 55.9134 242.617 57.0334 247.003 58.34C251.39 59.5534 255.217 61.7934 258.484 65.06C261.75 68.2334 263.383 72.7134 263.383 78.5C263.383 87.9267 259.837 94.6467 252.744 98.66C245.744 102.673 236.55 104.68 225.163 104.68C218.63 104.68 212.47 103.793 206.684 102.02C200.897 100.153 196.184 97.3067 192.544 93.48C188.904 89.6534 187.083 84.8 187.083 78.92H212.984V79.48C213.077 82.6534 214.383 84.8934 216.903 86.2C219.517 87.4134 222.27 88.02 225.163 88.02C232.91 88.02 236.783 86.2 236.783 82.56C236.783 80.6934 235.57 79.34 233.144 78.5C230.717 77.66 226.75 76.7734 221.244 75.84C214.617 74.72 209.157 73.5067 204.863 72.2C200.663 70.8934 196.977 68.7 193.803 65.62C190.63 62.4467 189.044 58.06 189.044 52.46C189.044 43.4067 192.45 36.9667 199.264 33.14C206.17 29.3134 215.13 27.4 226.144 27.4Z" fill="black"/>
<path d="M135.845 27.4C149.378 27.4 159.691 30.5734 166.785 36.92C173.971 43.2667 177.565 52.9734 177.565 66.04V70.8H122.125C122.125 76.12 123.291 80.1334 125.625 82.84C128.051 85.5467 131.831 86.9 136.965 86.9C141.631 86.9 145.038 85.92 147.185 83.96C149.425 82 150.545 79.3867 150.545 76.12H177.565C177.565 85.08 174.158 92.08 167.345 97.12C160.531 102.16 150.591 104.68 137.525 104.68C123.805 104.68 113.165 101.507 105.605 95.16C98.0447 88.72 94.2646 79.0134 94.2646 66.04C94.2646 53.3467 97.9513 43.7334 105.325 37.2C112.698 30.6667 122.871 27.4 135.845 27.4ZM136.965 45.18C128.191 45.18 123.291 49.3334 122.265 57.64H149.425C149.425 53.8134 148.305 50.78 146.065 48.54C143.918 46.3 140.885 45.18 136.965 45.18Z" fill="black"/>
<path d="M58.0057 103L55.6257 92.5C50.2124 100.62 42.3724 104.68 32.1057 104.68C22.1191 104.68 14.4191 101.413 9.00574 94.88C3.59241 88.3467 0.885742 78.6867 0.885742 65.9C0.885742 53.2067 3.59241 43.64 9.00574 37.2C14.4191 30.6667 22.1191 27.4 32.1057 27.4C40.5991 27.4 47.5057 30.2467 52.8257 35.94V1.5H80.6857V103H58.0057ZM40.7857 47.98C32.7591 47.98 28.7457 52.7867 28.7457 62.4V69.82C28.7457 79.34 32.7591 84.1 40.7857 84.1C44.8924 84.1 47.9724 82.6533 50.0257 79.76C52.0791 76.8667 53.1057 73.0867 53.1057 68.42V63.8C53.1057 59.1333 52.0791 55.3533 50.0257 52.46C47.9724 49.4733 44.8924 47.98 40.7857 47.98Z" fill="black"/>
<path d="M717.122 103V88.3H730.842V103H717.122Z" fill="black"/>
<path d="M677.51 109.86L708.73 0.0999756H718.67L687.45 109.86H677.51Z" fill="black"/>
</svg>
