<svg width="719" height="142" viewBox="0 0 719 142" fill="none" xmlns="http://www.w3.org/2000/svg">
<path d="M41.9929 10.8199C36.4863 19.4066 32.0063 29.5799 28.5529 41.3399C25.0996 53.0066 23.3729 63.7866 23.3729 73.68C23.3729 83.6666 25.0996 94.4933 28.5529 106.16C32.0063 117.733 36.4863 127.813 41.9929 136.4H25.1929C17.1663 127.813 10.9596 118.06 6.57292 107.14C2.18625 96.22 -0.00708008 85.0666 -0.00708008 73.68C-0.00708008 62.2 2.18625 51 6.57292 40.08C10.9596 29.16 17.1663 19.4066 25.1929 10.8199H41.9929Z" fill="black"/>
<path d="M692.853 10.8199C700.88 19.4066 707.086 29.16 711.473 40.08C715.86 51 718.053 62.2 718.053 73.68C718.053 85.0666 715.86 96.22 711.473 107.14C707.086 118.06 700.88 127.813 692.853 136.4H676.053C681.56 127.813 686.04 117.733 689.493 106.16C692.946 94.4933 694.673 83.6666 694.673 73.68C694.673 63.7866 692.946 53.0066 689.493 41.3399C686.04 29.5799 681.56 19.4066 676.053 10.8199H692.853Z" fill="black"/>
<g clip-path="url(#clip0_610_404)">
<path d="M151.808 108.914C151.808 129.85 130.444 142 103.517 142C81.1233 142 64 134.971 64 119.599C64 114.035 66.1914 108.763 71.1687 103.5C67.0698 101.015 64.7275 96.915 64.7275 91.3503C64.7275 84.3213 67.7973 79.0496 72.6326 73.9287C67.8062 69.5356 64.7275 63.5361 64.7275 56.3651C64.7275 38.9435 82.4363 29.2786 101.316 29.2786C113.17 29.2786 124.588 33.086 131.464 40.257C137.32 36.1567 141.126 31.6216 141.126 26.199C141.126 17.7056 132.928 16.0992 124.002 16.0992V2.92871C139.218 2.92871 146.689 8.20046 146.689 19.028C146.689 28.542 140.691 35.713 132.493 41.4285C135.856 45.5287 137.905 50.5076 137.905 56.3562C137.905 73.7778 120.196 83.4427 101.316 83.4427C90.927 83.4427 80.8305 80.514 73.9457 74.9493C70.4323 79.0496 68.3828 83.2918 68.3828 88.1287C68.3828 95.1577 72.9165 98.8142 78.6302 98.8142C94.8751 98.8142 107.607 88.5636 127.072 88.5636C143.317 88.5636 151.808 96.4712 151.808 108.914ZM137.178 112.721C137.178 105.55 132.644 101.006 123.124 101.006C107.172 101.006 96.9246 106.127 82.4363 106.127C78.6302 106.127 75.2676 105.541 72.4818 104.228C69.554 107.884 67.6553 112.278 67.6553 116.671C67.6553 129.85 82.4364 133.214 98.8232 133.214C120.773 133.214 137.169 123.842 137.169 112.721H137.178ZM78.923 56.3651C78.923 60.0216 80.3869 63.1012 82.8711 65.5862C88.4339 61.7788 94.7243 58.5572 101.015 55.6285C107.163 52.6997 113.746 49.9218 119.602 46.9931C115.654 43.3366 109.213 41.4285 101.307 41.4285C88.2831 41.4285 78.9141 46.8422 78.9141 56.3562L78.923 56.3651ZM120.782 48.1646C114.341 51.3862 107.465 54.1641 101.467 56.9508C95.0259 59.8796 89.0284 63.1012 84.0511 66.4648C87.9992 69.6865 94.1476 71.2928 101.316 71.2928C114.341 71.2928 123.71 65.8791 123.71 56.3651C123.71 53.1435 122.689 50.3656 120.782 48.1646Z" fill="black"/>
<path d="M227.177 61.486H212.538C212.538 51.6792 209.024 43.1858 197.908 43.1858C186.791 43.1858 176.685 51.6792 176.685 81.9784V111.257H162.055V32.2074H176.685V66.0212C179.17 41.8634 187.811 30.743 203.027 30.743C220.585 30.743 227.177 44.0644 227.177 61.486Z" fill="black"/>
<path d="M323.324 72.3135C323.324 103.199 314.541 112.721 303.859 112.721C296.69 112.721 290.391 108.479 290.391 98.0865V69.3937H283.071C283.071 90.6227 276.045 112.721 253.075 112.721C240.485 112.721 231.56 105.258 231.56 94.1283C231.56 77.5853 249.561 71 269.905 68.799C249.268 67.7784 237.708 63.3853 237.708 51.3774C237.708 37.7631 250.147 29.2698 270.047 29.2698C291.411 29.2698 305.021 39.6624 305.021 62.9415V93.6845C305.021 98.5125 307.071 100.27 309.848 100.27C313.946 100.27 321.852 96.6133 321.852 70.6983C321.852 56.7912 319.509 44.1975 316.44 30.7342H317.903C320.831 44.2064 323.315 56.2054 323.315 72.3135H323.324ZM290.4 64.4059C290.4 53.4275 286.008 41.7125 265.229 41.7125C252.933 41.7125 244.3 45.9548 244.3 54.1553C244.3 64.255 255.275 67.9115 281.616 67.9115H290.4V64.397V64.4059ZM281.616 69.3848C256.881 69.3848 245.471 76.7066 245.471 88.5636C245.471 96.4713 250.59 100.279 258.203 100.279C274.004 100.279 281.616 87.9779 281.616 69.3937V69.3848Z" fill="black"/>
<path d="M426.055 71.0001C426.055 93.5426 409.81 112.721 386.539 112.721C366.053 112.721 355.22 97.9357 352.292 79.0497V137.607H337.662V30.7431H352.292V62.9504C355.22 44.0644 366.053 29.2787 386.539 29.2787C409.81 29.2787 426.055 48.4576 426.055 71.0001ZM410.689 71.0001C410.689 54.9008 399.563 42.4492 381.419 42.4492C363.276 42.4492 352.301 54.8919 352.301 71.0001C352.301 87.1082 363.276 99.5421 381.419 99.5421C399.563 99.5421 410.689 87.0993 410.689 71.0001Z" fill="black"/>
<path d="M521.901 64.4147V111.257H507.262V67.3435C507.262 50.2147 498.479 41.7213 483.848 41.7213C469.218 41.7213 457.507 50.2147 457.507 67.3435V111.257H442.877V2.92871H457.507V58.2643C460.435 40.9936 471.702 29.2786 490.431 29.2786C510.917 29.2786 521.892 42.6 521.892 64.4147H521.901Z" fill="black"/>
<path d="M538.731 10.8364C538.731 4.97888 543.709 0 549.857 0C556.006 0 560.69 4.97888 560.69 10.8364C560.69 16.9868 555.713 21.9656 549.857 21.9656C543.709 21.9656 538.731 16.9868 538.731 10.8364ZM557.026 111.266H542.396V30.743H557.026V111.257V111.266Z" fill="black"/>
<path d="M617.312 112.721C592.577 112.721 573.848 93.5426 573.848 71.0001C573.848 48.4576 592.577 29.2787 617.312 29.2787C642.048 29.2787 657.264 46.9932 658 62.9504H643.37C642.642 52.9927 634.445 42.4581 617.028 42.4581C599.612 42.4581 589.223 54.4659 589.223 71.0089C589.223 87.5519 601.662 99.5509 620.684 99.5509C639.706 99.5509 653.608 89.8861 656.536 76.8576H658C656.536 93.4006 642.048 112.721 617.312 112.721Z" fill="black"/>
</g>
<defs>
<clipPath id="clip0_610_404">
<rect width="594" height="142" fill="white" transform="translate(64)"/>
</clipPath>
</defs>
</svg>
